<svg width="1268" height="579" viewBox="0 0 1268 579" fill="none" xmlns="http://www.w3.org/2000/svg">
<path d="M740.018 0C740.282 0.792 740.546 1.584 740.818 2.4C739.77 4.152 739.77 4.152 738.418 5.6H736.818C736.603 6.3592 736.389 7.12 736.168 7.904C735.216 10.4 735.216 10.4 732.816 12C731.864 13.64 731.864 13.64 731.216 15.2H729.616C729.435 15.7448 729.253 16.288 729.066 16.848C727.978 19.288 726.666 21.2 725.066 23.32C723.946 24.84 723.946 24.84 722.858 26.736C721.61 28.792 720.258 30.68 718.81 32.6C715.21 37.504 711.938 42.6 708.65 47.72C706.53 51.016 704.378 54.296 702.21 57.56C701.879 58.0552 701.55 58.552 701.21 59.064C699.306 61.912 697.354 64.72 695.362 67.544C693.762 69.808 692.322 72.056 691.01 74.496C686.354 83.136 680.53 91.296 675.09 99.456C671.546 104.784 668.098 110.096 665.09 115.776C663.858 117.96 662.53 120.072 661.194 122.192C658.922 125.832 656.698 129.496 654.474 133.152C653.998 133.934 653.522 134.712 653.034 135.52C648.226 143.424 643.514 151.36 638.794 159.36C637.81 161.056 636.818 162.744 635.834 164.44C635.082 165.736 635.082 165.736 634.314 167.048C632.818 169.608 631.322 172.168 629.826 174.728C621.85 188.328 614.146 202.088 606.626 216.008C604.986 219.048 603.33 222.088 601.658 225.128C595.314 236.648 589.338 248.248 583.338 259.928C581.458 263.592 579.57 267.24 577.658 270.888C573.442 278.968 569.258 287.048 565.418 295.288C563.618 299.176 561.65 302.936 559.618 306.728C537.698 347.688 520.258 391.528 502.818 434.728C501.818 437.2 500.81 439.664 499.794 442.128C498.21 445.992 496.69 449.88 495.178 453.808C494.767 454.856 494.354 455.904 493.946 456.952C487.034 474.632 480.906 492.472 475.386 510.632C473.034 518.4 470.57 526.152 467.818 533.752C467.562 534.467 467.306 535.184 467.042 535.92C460.458 553.84 460.458 553.84 452.802 557.84C435.922 564.416 416.002 563.568 398.162 563.576C396.65 563.579 395.138 563.581 393.626 563.584C390.482 563.589 387.338 563.59 384.186 563.59C380.186 563.59 376.186 563.601 372.186 563.615C369.074 563.623 365.954 563.625 362.826 563.625C361.354 563.626 359.882 563.629 358.402 563.635C332.402 563.735 332.402 563.735 325.682 557.171C321.666 552.747 318.738 548.211 316.002 542.931C315.591 542.158 315.178 541.387 314.762 540.587C313.946 539.043 313.13 537.499 312.322 535.955C311.122 533.675 309.906 531.411 308.674 529.147C306.33 524.779 304.066 520.347 301.866 515.947C298.402 508.995 294.866 502.107 291.306 495.227C290.991 494.614 290.675 494.003 290.346 493.371C281.546 476.251 272.506 459.291 263.226 442.411C258.25 433.371 253.466 424.251 248.746 415.051C244.618 406.971 240.346 399.051 236.026 391.131C233.202 386.003 230.442 380.811 227.706 375.691C227.199 374.747 226.69 373.803 226.186 372.851C224.138 369.035 222.098 365.211 220.058 361.411C218.562 358.611 217.058 355.811 215.554 353.011C215.107 352.171 214.658 351.331 214.202 350.475C211.794 345.987 209.282 341.595 206.634 337.275C205.45 335.283 204.402 333.243 203.41 331.147C202.386 328.995 201.698 327.635 200.01 325.947C198.946 323.899 197.97 321.811 196.986 319.715C196.17 317.835 196.17 317.835 194.41 317.147C194.118 316.091 193.855 315.019 193.61 313.947C192.706 311.899 192.01 310.747 190.41 309.147C189.73 307.883 189.082 306.595 188.458 305.299C187.394 303.115 186.33 301.027 185.058 298.947C183.818 296.819 183.146 294.699 182.41 292.347C181.915 291.435 181.915 291.435 181.41 290.499C180.474 287.147 181.203 284.363 182.41 281.139C186.202 275.635 193.29 274.219 199.53 272.979C208.97 271.531 218.33 271.355 227.85 271.339C230.034 271.332 232.21 271.307 234.394 271.281C249.674 271.19 270.874 271.925 282.714 282.881C285.33 285.713 287.162 287.761 288.026 291.521C288.554 291.785 289.082 292.049 289.626 292.321C289.741 292.817 289.857 293.313 289.976 293.825C290.279 295.593 290.279 295.593 291.624 296.625C293.336 298.481 293.352 300.273 293.624 302.721C294.416 302.985 295.208 303.249 296.024 303.521L296.224 305.521C296.955 308.937 298.36 311.673 300.024 314.721H301.624C302.416 317.361 303.208 320.001 304.024 322.721H305.624C305.748 323.809 305.748 323.809 305.874 324.921C306.441 327.601 307.106 328.657 308.826 330.721C310.274 333.273 311.138 335.937 312.026 338.721H313.626C313.84 339.448 314.055 340.177 314.275 340.921C315.047 343.465 315.047 343.465 316.427 345.017C318.211 347.545 318.571 350.105 319.227 353.097H320.827C321.026 354.073 321.223 355.041 321.427 356.049C322.206 359.209 323.523 361.001 325.627 363.497C326.161 365.097 326.691 366.697 327.227 368.297C327.691 368.849 328.155 369.401 328.627 369.969C331.027 373.073 332.651 376.417 334.387 379.889C334.754 380.622 335.12 381.353 335.499 382.105C336.27 383.649 337.035 385.193 337.803 386.737C338.979 389.105 340.155 391.465 341.339 393.825C342.088 395.329 342.835 396.833 343.587 398.329C343.941 399.035 344.294 399.737 344.659 400.465C344.985 401.125 345.311 401.785 345.643 402.465C345.931 403.043 346.218 403.617 346.515 404.217C347.228 405.849 347.228 405.849 347.635 407.545C348.227 409.809 349.771 411.233 351.227 413.049C352.267 414.953 353.235 416.849 354.179 418.801C354.733 419.937 355.291 421.065 355.843 422.201C356.275 423.089 356.275 423.089 356.715 423.993C357.667 425.929 358.635 427.857 359.619 429.777C359.947 430.423 360.274 431.065 360.611 431.737C361.248 432.993 361.883 434.249 362.523 435.497C362.813 436.072 363.103 436.649 363.403 437.241C363.66 437.746 363.917 438.249 364.181 438.769C364.831 440.249 364.831 440.249 365.245 441.945C365.547 443.553 365.547 443.553 366.781 444.953C368.669 447.529 369.421 450.281 369.981 453.433C370.583 456.177 371.677 458.521 372.829 461.081H374.429C375.245 462.409 376.045 463.737 376.829 465.081C379.341 466.337 381.261 466.161 384.029 465.881C387.285 463.153 389.205 460.097 391.061 456.361C391.331 455.829 391.601 455.297 391.877 454.745C392.453 453.609 393.029 452.465 393.597 451.329C395.101 448.321 396.621 445.329 398.149 442.369C398.45 441.776 398.751 441.185 399.061 440.569C402.573 433.649 406.309 426.889 410.101 420.089C411.789 417.017 413.445 413.929 415.109 410.809C422.877 396.409 430.869 382.169 439.349 368.169C442.981 362.161 446.541 356.089 450.069 350.089C455.485 340.809 461.029 331.609 466.709 322.489C468.109 320.265 469.493 318.025 470.885 315.793C473.917 310.913 476.965 306.033 480.005 301.153C480.494 300.374 480.981 299.593 481.485 298.793C491.005 283.593 501.085 268.793 511.165 253.993L512.909 251.441C518.053 243.953 523.309 236.641 528.909 229.441C532.069 225.353 535.117 221.201 538.109 217.041C542.341 211.137 546.669 205.361 551.149 199.601C552.133 198.321 553.117 197.033 554.101 195.753C561.245 186.473 568.501 177.273 575.941 168.153C577.845 165.817 579.717 163.473 581.581 161.113C585.293 156.457 589.197 151.993 593.101 147.433C595.173 145.017 597.245 142.601 599.301 140.177C599.677 139.738 600.052 139.297 600.437 138.849C602.397 136.553 602.397 136.553 603.949 133.977H605.549C605.727 133.545 605.906 133.113 606.09 132.665C607.49 130.177 609.354 128.233 611.298 126.177C612.098 125.313 612.906 124.449 613.706 123.593C614.094 123.177 614.482 122.761 614.882 122.329C616.202 120.905 617.474 119.449 618.746 117.977C622.138 114.073 625.65 110.281 629.146 106.457C630.354 105.137 631.554 103.809 632.754 102.481C637.114 97.6734 641.554 93.1214 646.434 88.9614C647.994 87.6974 647.994 87.6974 648.722 85.9934H650.322C650.519 85.5478 650.718 85.1054 650.922 84.6414C652.722 81.3134 654.994 78.8494 657.866 76.4014C662.378 72.4894 666.506 68.2414 670.746 63.9214C680.106 54.4014 680.106 54.4014 685.066 50.2414C686.93 48.6414 688.626 46.9054 690.346 45.1454C693.122 42.2974 695.922 39.5294 698.906 36.9054C702.21 34.0334 705.386 31.0414 708.586 28.0254C712.866 23.9854 717.226 20.1454 721.786 16.5054C724.73 14.0734 727.514 11.4814 730.266 8.8494C732.314 6.9214 734.178 5.5454 736.714 4.3454C738.498 2.3214 738.498 2.3214 739.914 0.3454L740.018 0Z" fill="#FA6505"/>
<path d="M951.8 373H1263C1263 387.64 1260.91 397.32 1251.08 407.88C1246.78 412.048 1242.04 415.016 1236.84 417.96C1234.75 419.152 1232.88 420.36 1231.01 421.864C1231.26 422.266 1231.51 422.672 1231.76 423.088C1232.92 424.944 1234.06 426.808 1235.2 428.664C1235.6 429.297 1235.99 429.928 1236.4 430.584C1239.63 435.848 1242.79 441.064 1244.36 447.064C1244.54 447.749 1244.73 448.432 1244.92 449.136C1250.12 473.856 1245.67 501.216 1232.6 522.656C1228.62 528.752 1223.96 534.176 1219 539.456C1218.25 540.272 1218.25 540.272 1217.48 541.096C1212.86 545.944 1207.64 549.976 1202.2 553.816C1201.75 554.144 1201.3 554.472 1200.84 554.808C1187.08 564.648 1171.96 572.088 1155.8 577.048C1154.92 577.321 1154.04 577.594 1153.14 577.872C1148.36 579.048 1143.54 578.856 1138.66 578.84C1137.57 578.841 1136.48 578.842 1135.4 578.844C1132.42 578.848 1129.44 578.841 1126.44 578.833C1123.22 578.826 1120 578.829 1116.76 578.83C1111.19 578.831 1105.64 578.826 1100.04 578.817C1091.96 578.804 1083.96 578.8 1075.88 578.798C1062.84 578.794 1049.8 578.783 1036.68 578.768C1023.96 578.753 1011.32 578.742 998.596 578.735C997.42 578.735 997.42 578.735 996.228 578.734C992.308 578.732 988.38 578.73 984.468 578.728C951.908 578.711 919.428 578.683 886.868 578.647C887.361 575.023 887.98 571.663 889.076 568.167C889.51 566.767 889.51 566.767 889.956 565.343C890.271 564.343 890.586 563.343 890.908 562.311C891.239 561.247 891.57 560.191 891.9 559.127C892.78 556.303 893.676 553.471 894.564 550.647C895.12 548.879 895.676 547.119 896.228 545.351C900.204 532.711 904.196 519.991 908.468 507.431C912.74 494.791 916.708 482.151 920.628 469.431C920.963 468.351 921.298 467.279 921.636 466.199C922.32 463.999 923.004 461.807 923.684 459.607C923.858 459.05 924.03 458.495 924.209 457.919C924.563 456.783 924.918 455.639 925.273 454.503C929.601 440.583 933.993 426.663 938.313 412.823C939.169 410.119 940.017 407.415 940.865 404.743C941.865 401.543 942.873 398.351 943.881 395.143C944.251 393.967 944.621 392.791 944.985 391.615C945.494 389.991 946.009 388.367 946.521 386.743C946.95 385.383 946.95 385.383 947.385 383.991C948.657 380.303 950.145 376.687 951.593 373.031L951.8 373ZM1034.2 469C1032.26 473.464 1032.26 473.464 1030.69 478.04C1030.52 478.628 1030.34 479.216 1030.16 479.824C1029.91 480.712 1029.91 480.712 1029.65 481.624C1029.47 482.234 1029.29 482.84 1029.1 483.472C1028.14 486.568 1028.14 486.568 1027.8 489.776C1036.44 489.832 1045.08 489.874 1053.72 489.9C1057.73 489.912 1061.72 489.929 1065.8 489.957C1069.68 489.983 1073.56 489.997 1077.4 490.003C1078.88 490.008 1080.35 490.016 1081.83 490.029C1083.9 490.047 1085.98 490.049 1088.05 490.048C1088.97 490.061 1088.97 490.061 1089.89 490.074C1095.88 490.04 1100.93 488.362 1105.33 484.178C1107.48 480.946 1107.37 478.37 1106.93 474.578C1105.63 471.674 1104.8 470.762 1102.13 468.978C1099.93 468.831 1097.81 468.777 1095.61 468.797C1094.62 468.796 1094.62 468.796 1093.61 468.796C1091.41 468.797 1089.21 468.81 1087.02 468.822C1085.5 468.825 1083.98 468.827 1082.46 468.829C1078.45 468.835 1074.46 468.851 1070.46 468.868C1066.37 468.885 1062.3 468.892 1058.22 468.9C1050.22 468.917 1042.22 468.945 1034.14 468.978L1034.2 469Z" fill="#FB6505"/>
<path d="M575.8 377C577.216 376.992 577.216 376.992 578.664 376.983C581.288 376.971 583.904 376.977 586.528 376.991C589.352 377.002 592.184 376.99 595.008 376.98C600.552 376.966 606.128 376.972 611.648 376.987C616.168 376.998 620.688 377.001 625.168 376.999C626.136 376.998 626.136 376.998 627.12 376.997C628.424 376.997 629.736 376.996 631.04 376.995C642.64 376.988 654.16 377.001 665.76 377.025C676.96 377.048 688.16 377.054 699.36 377.041C711.6 377.028 723.76 377.025 736 377.039C737.312 377.04 738.616 377.042 739.928 377.043C740.571 377.044 741.216 377.045 741.88 377.045C746.368 377.05 750.84 377.047 755.32 377.042C760.824 377.036 766.36 377.041 771.8 377.061C774.6 377.071 777.392 377.076 780.2 377.067C807 377.005 841.72 377.963 861.8 397.867C863.848 399.859 865.976 401.635 868.208 403.419C869.696 404.635 871.176 405.851 872.656 407.067C873.07 407.407 873.488 407.746 873.912 408.091C879.76 412.931 883.912 417.291 886.232 424.651C886.427 425.248 886.623 425.843 886.825 426.459C895.225 452.379 895.225 479.659 882.889 504.379C877.473 514.779 870.249 523.419 862.249 531.819C861.463 532.667 861.463 532.667 860.665 533.531C846.105 548.811 826.905 558.331 806.985 564.651C805.513 565.13 804.041 565.619 802.585 566.139C784.585 572.387 766.585 571.755 747.705 571.595C743.041 571.563 738.345 571.563 733.705 571.559C724.745 571.546 715.785 571.504 706.825 571.452C696.505 571.392 686.265 571.365 675.945 571.339C652.905 571.279 629.865 571.165 606.745 571.032C601.665 571.002 596.585 570.975 591.545 570.948C559.065 570.773 526.665 570.547 493.945 570.201C494.36 566.905 494.857 563.865 495.993 560.761C496.248 560.05 496.503 559.337 496.766 558.609C497.043 557.852 497.322 557.097 497.606 556.313C497.896 555.505 498.186 554.705 498.486 553.873C499.43 551.257 500.39 548.641 501.342 546.025C501.998 544.217 502.654 542.409 503.31 540.601C507.558 528.921 511.87 517.161 516.19 505.561C516.384 505.042 516.578 504.521 516.778 503.985C516.967 503.482 517.155 502.977 517.35 502.457C519.206 497.505 520.974 492.537 522.718 487.577C523.51 485.481 523.51 485.481 524.31 484.681C525.382 484.603 526.462 484.58 527.542 484.58C528.242 484.577 528.942 484.575 529.662 484.572C530.83 484.574 530.83 484.574 532.022 484.577C532.846 484.575 533.662 484.573 534.51 484.571C537.286 484.567 540.054 484.567 542.83 484.568C544.806 484.566 546.79 484.563 548.766 484.56C553.038 484.553 557.326 484.549 561.566 484.547C568.326 484.542 575.086 484.529 581.886 484.514C584.198 484.509 586.51 484.504 588.822 484.498C589.4 484.497 589.982 484.496 590.574 484.495C597.158 484.48 603.774 484.467 610.334 484.455C610.936 484.454 611.542 484.453 612.158 484.452C621.918 484.434 631.678 484.426 641.358 484.42C651.358 484.413 661.358 484.395 671.358 484.365C677.526 484.348 683.678 484.34 689.838 484.345C694.574 484.348 699.278 484.334 704.078 484.314C706.014 484.308 707.95 484.308 709.894 484.314C725.334 484.981 725.334 484.981 738.854 478.634C742.39 473.882 741.454 467.274 740.702 461.674C740.57 461.08 740.438 460.482 740.302 459.874C739.31 459.553 739.31 459.553 738.302 459.225C735.502 458.273 735.502 458.273 732.83 457.033C727.998 455.225 722.99 455.545 717.95 455.577C716.822 455.575 715.702 455.572 714.574 455.567C712.158 455.561 709.742 455.561 707.326 455.568C703.494 455.577 699.654 455.567 695.806 455.554C686.286 455.525 676.766 455.52 667.166 455.522C659.766 455.524 652.366 455.518 644.926 455.49C641.742 455.479 638.566 455.474 635.406 455.485C614.526 455.551 592.366 455.423 575.886 440.445C564.286 428.365 561.726 412.525 561.566 396.365C561.552 395.149 561.53 393.933 561.5 392.717C561.456 390.949 561.439 389.181 561.427 387.413C561.403 385.837 561.403 385.837 561.379 384.229C562.667 376.509 568.643 376.869 575.059 376.941L575.8 377Z" fill="#FB6505"/>
<path d="M99.2178 289.6C102.282 293.6 102.282 293.6 102.77 296.448C103.086 298.616 103.086 298.616 105.218 300.352C107.506 302.696 107.794 303.992 108.018 307.2H109.618C109.939 308.312 109.939 308.312 110.267 309.448C110.991 311.952 110.991 311.952 112.467 313.2C113.619 314.4 113.619 314.4 113.931 316.552C114.477 319.536 115.507 321.672 116.915 324.352C117.42 325.328 117.923 326.304 118.427 327.28C118.687 327.786 118.948 328.288 119.216 328.808C120.592 331.544 121.88 334.32 123.168 337.128C123.413 337.657 123.659 338.184 123.911 338.728C124.481 339.96 125.047 341.192 125.615 342.424H127.215C127.561 343.488 127.561 343.488 127.915 344.576C129.907 350.608 129.907 350.608 133.267 355.936C134.419 357.632 134.419 357.632 134.771 359.888C135.451 363.744 137.283 366.648 139.771 369.648C141.155 371.696 141.347 373.568 141.619 376H143.219C144.915 379.36 146.611 382.72 148.299 386.08C148.874 387.224 149.451 388.368 150.027 389.504C150.859 391.144 151.683 392.792 152.515 394.44C152.773 394.949 153.031 395.456 153.298 395.984C154.49 398.376 155.434 400.6 156.018 403.208C156.397 403.703 156.777 404.2 157.17 404.712C158.682 406.768 159.218 408.8 160.018 411.208C160.414 411.719 160.81 412.232 161.218 412.76C162.85 415.008 163.322 417.336 164.018 420.008C164.764 421.632 164.764 421.632 165.898 422.984C167.514 425.224 168.698 427.552 169.946 430.016C170.203 430.526 170.46 431.04 170.725 431.56C171.557 433.224 172.389 434.888 173.221 436.552C173.505 437.118 173.788 437.688 174.077 438.272C178.381 446.912 182.397 455.552 186.157 464.432C186.481 465.198 186.805 465.968 187.141 466.752C187.415 467.418 187.691 468.088 187.973 468.768C188.829 470.632 188.829 470.632 191.253 471.976C194.141 472.353 195.557 472.296 198.029 470.696C200.341 468.504 201.621 466.24 202.965 463.4C203.222 462.878 203.479 462.352 203.743 461.816C204.289 460.704 204.831 459.584 205.367 458.464C206.495 456.112 207.647 453.776 208.799 451.44C209.369 450.28 209.943 449.12 210.511 447.952C213.463 441.912 216.575 435.952 219.791 430.032C220.879 427.992 221.959 425.952 223.039 423.912C224.063 421.976 225.095 420.04 226.127 418.104C226.879 416.688 227.631 415.272 228.375 413.856C229.063 412.568 229.063 412.568 229.767 411.256C230.176 410.486 230.583 409.712 231.007 408.92C232.087 407.16 232.087 407.16 233.687 406.36C234.058 407.496 234.058 407.496 234.437 408.664C235.195 410.896 235.805 412.4 237.213 414.256C238.437 415.896 239.429 417.536 240.421 419.328C240.777 419.974 241.134 420.616 241.501 421.28C241.876 421.967 242.251 422.656 242.637 423.36L243.829 425.536C246.381 430.224 248.829 434.976 251.189 439.696C256.589 450.656 262.389 461.376 268.069 472.176C270.165 476.152 272.237 480.144 274.301 484.176C274.567 484.69 274.831 485.208 275.109 485.736C276.429 488.296 277.749 490.856 279.069 493.416C279.439 494.133 279.439 494.133 279.816 494.864C280.53 496.248 281.24 497.632 281.952 499.024C283.128 501.232 284.384 503.352 285.696 505.48C287.008 507.832 287.288 508.624 287.256 511.408C286.985 512.304 286.714 513.2 286.432 514.12C286.28 514.638 286.127 515.16 285.971 515.688C285.377 517.648 284.731 519.576 284.083 521.52C283.802 522.392 283.521 523.264 283.235 524.168C272.275 558.088 272.275 558.088 264.035 563.368C252.995 567.56 240.915 568.792 229.155 568.824C227.923 568.832 227.923 568.832 226.667 568.84C223.971 568.856 221.275 568.865 218.587 568.873C217.659 568.876 216.731 568.88 215.779 568.883C210.875 568.9 205.939 568.911 201.059 568.919C196.011 568.927 190.979 568.955 185.939 568.987C182.043 569.008 178.147 569.014 174.259 569.017C172.403 569.021 170.539 569.03 168.683 569.045C166.075 569.065 163.467 569.064 160.859 569.058C159.723 569.074 159.723 569.074 158.563 569.089C151.755 569.037 145.283 567.473 140.083 562.929C134.051 556.273 130.003 547.729 126.083 539.729C125.804 539.172 125.527 538.617 125.243 538.041C124.65 536.849 124.059 535.665 123.467 534.473C122.291 532.105 121.107 529.745 119.923 527.377C119.003 525.529 118.083 523.689 117.163 521.841C114.755 517.017 112.347 512.162 109.931 507.362C108.115 503.722 106.299 500.081 104.483 496.481C102.707 492.913 100.923 489.345 99.1386 485.761C98.4706 484.425 97.8026 483.081 97.1386 481.745C92.6666 472.785 88.0986 463.905 83.3786 455.025C81.5706 451.609 79.7866 448.185 78.0026 444.785C77.6106 444.034 77.2186 443.281 76.8186 442.505C72.7786 434.761 68.7386 426.985 64.7386 419.225C64.3594 418.492 64.3594 418.492 63.9722 417.745C63.7194 417.256 63.4666 416.769 63.2058 416.265C59.6298 409.345 56.0458 402.425 52.4858 395.545C50.6858 392.073 48.8858 388.593 47.0858 385.145C42.4378 376.185 37.7258 367.225 32.7658 358.345C30.8538 354.897 29.3578 351.649 28.1418 347.865L26.5418 347.065C25.7258 345.201 24.9338 343.337 24.1418 341.465C23.6138 340.937 23.0858 340.409 22.5418 339.865C22.0106 338.905 21.5178 337.929 21.0378 336.937C20.7618 336.369 20.485 335.801 20.1978 335.217C19.6218 334.017 19.0458 332.817 18.4698 331.609C17.1178 328.393 17.1178 328.393 14.5338 326.265C14.2386 324.937 13.977 323.601 13.7338 322.265C12.8618 319.249 12.8618 319.249 10.5338 317.465C9.73379 316.097 9.73379 316.097 8.93379 314.417C8.66979 313.868 8.40579 313.321 8.13379 312.753C7.86979 312.197 7.60579 311.641 7.33379 311.065C7.04739 310.505 6.7602 309.945 6.4618 309.369C5.7058 307.817 5.29379 306.353 4.93379 304.665H3.33379C2.27779 301.769 1.73379 299.785 1.73379 296.665H0.133792C-0.139808 292.105 -0.259808 288.505 2.53379 284.665C21.1738 267.465 80.9338 273.545 99.3338 289.465L99.2178 289.6ZM174.418 443.2C174.946 444.256 175.474 445.312 176.018 446.4C175.754 445.344 175.49 444.288 175.218 443.2H174.418Z" fill="#FB6505"/>
<path d="M1000.6 270.6C1001.5 270.594 1002.39 270.588 1003.31 270.582C1006.32 270.569 1009.33 270.59 1012.35 270.61C1014.5 270.608 1016.66 270.603 1018.82 270.597C1024.06 270.584 1029.3 270.598 1034.58 270.62C1040.7 270.645 1046.82 270.645 1052.98 270.644C1063.94 270.643 1074.82 270.665 1085.78 270.7C1096.34 270.733 1106.98 270.75 1117.54 270.749C1118.19 270.749 1118.84 270.749 1119.51 270.748C1120.16 270.748 1120.81 270.748 1121.48 270.748C1133.56 270.746 1145.64 270.761 1157.72 270.782C1161.98 270.789 1166.2 270.792 1170.52 270.793C1175.72 270.795 1180.92 270.806 1186.12 270.827C1188.77 270.838 1191.42 270.845 1194.06 270.843C1214.46 270.834 1234.7 272.211 1250.46 286.923C1264.54 301.963 1267.66 321.643 1267.1 341.563C1266.58 345.787 1266.05 350.043 1265.5 354.363H917.504C919.328 351.323 920.464 349.635 922.904 347.315C925.512 344.779 927.928 342.155 930.304 339.395C932.744 336.611 935.264 333.899 937.792 331.155C939.896 328.915 939.896 328.915 941.504 326.323H943.104C943.314 325.854 943.526 325.387 943.742 324.907C944.75 323.051 945.83 321.763 947.286 320.243C947.798 319.704 948.31 319.163 948.838 318.611C949.372 318.056 949.902 317.499 950.454 316.931C954.038 313.179 957.55 309.395 960.934 305.491C963.062 303.059 965.278 300.707 967.486 298.347C970.646 294.963 973.758 291.555 976.766 288.027C979.254 285.211 981.822 282.467 984.39 279.707C984.782 279.286 985.173 278.867 985.574 278.435C985.92 278.065 986.266 277.695 986.622 277.315C988.022 275.819 988.022 275.819 989.398 273.467C992.414 269.883 996.27 270.459 1000.68 270.523L1000.6 270.6Z" fill="#FB6505"/>
<path d="M698.2 284.2C701.432 284.207 704.656 284.205 707.88 284.203C713.464 284.202 719.08 284.207 724.6 284.217C732.68 284.23 740.76 284.234 748.84 284.236C761.96 284.239 775 284.25 788.12 284.265C800.84 284.28 813.56 284.291 826.28 284.298C827.065 284.298 827.848 284.299 828.656 284.299C832.592 284.301 836.536 284.303 840.496 284.305C873.136 284.322 905.696 284.35 938.096 284.386C937.615 287.946 937.024 291.178 935.832 294.546C935.527 295.426 935.222 296.298 934.912 297.202C934.578 298.146 934.243 299.09 933.896 300.066C933.542 301.074 933.189 302.09 932.832 303.098C931.864 305.866 930.896 308.626 929.92 311.418C928.832 314.498 927.76 317.578 926.672 320.618C925.368 324.346 924.056 328.066 922.744 331.818C919.296 341.578 915.896 351.418 912.504 361.178H568.504C578.104 332.378 601.144 310.938 627.704 297.178C635.784 293.186 643.944 289.858 652.744 287.658C653.328 287.508 653.912 287.358 654.512 287.204C668.832 283.86 683.392 284.18 698.032 284.22L698.2 284.2Z" fill="#FB6505"/>
<path d="M539.8 9.79997C540.064 10.328 540.328 10.856 540.6 11.4C540.039 12.0272 539.48 12.656 538.904 13.304C536.608 16.056 534.856 19.032 533.048 22.104C531.808 24.192 530.528 26.256 529.208 28.296C528.824 28.892 528.441 29.488 528.048 30.104C527.706 30.5312 527.363 30.96 527.008 31.4H525.408C525.347 31.816 525.286 32.232 525.223 32.664C524.351 35.424 522.759 37.656 521.167 40.04C520.819 40.5672 520.471 41.096 520.111 41.64C518.983 43.352 517.847 45.056 516.711 46.76C515.933 47.936 515.159 49.112 514.375 50.288C512.855 52.584 511.335 54.88 509.815 57.176C500.935 70.616 492.375 84.216 483.895 97.896C483.267 98.912 483.267 98.912 482.623 99.944C480.567 103.264 478.535 106.6 476.535 109.944C474.167 113.912 471.711 117.816 469.223 121.704C466.863 125.448 464.735 129.28 462.631 133.144C460.623 136.8 458.479 140.376 456.335 143.944C452.991 149.56 449.711 155.224 446.575 160.904C444.511 164.6 442.359 168.248 440.183 171.864C434.327 181.624 428.903 191.624 423.543 201.704C421.967 204.64 420.367 207.552 418.751 210.504C413.447 220.104 408.431 229.864 403.391 239.624C402.778 240.824 402.167 242.024 401.551 243.224C401.254 243.803 400.958 244.384 400.655 244.976C398.423 249.328 396.143 253.696 393.839 257.936C390.159 264.848 386.815 271.936 383.439 278.976C381.679 282.688 379.863 286.368 378.007 290.016C375.559 294.856 373.239 299.776 370.943 304.656C369.239 308.288 367.471 311.888 365.655 315.456C362.575 321.552 359.655 327.696 356.775 333.936C356.537 334.445 356.298 334.952 356.053 335.48C351.941 344.28 348.077 353.16 344.373 362.12C344.002 363.008 343.632 363.888 343.253 364.8C342.769 365.976 342.769 365.976 342.277 367.168C341.389 368.936 341.389 368.936 339.789 369.736C338.333 366.88 336.877 364.016 335.437 361.176C334.945 360.208 334.453 359.232 333.957 358.264C333.242 356.864 332.533 355.456 331.821 354.048C331.394 353.208 330.965 352.36 330.525 351.496C329.389 348.952 329.389 348.952 328.533 345.88C328.286 345.048 328.039 344.208 327.785 343.352C327.257 343.088 326.729 342.824 326.185 342.552C325.353 341.16 325.353 341.16 324.537 339.448C324.127 338.608 324.127 338.608 323.705 337.752C322.983 336.144 322.983 336.144 322.185 333.744L320.937 331.296C319.785 328.944 319.785 328.944 319.785 327.344C318.993 327.08 318.201 326.816 317.385 326.544L317.034 324.744L316.585 322.544L316.285 320.744L315.785 319.344C314.993 319.08 314.201 318.816 313.385 318.544C313.261 317.68 313.261 317.68 313.135 316.792C312.537 314.344 311.503 312.672 310.183 310.544V308.944L308.583 308.144C308.317 306.808 308.05 305.48 307.783 304.144L306.183 303.344C305.127 301.56 304.167 299.792 303.231 297.944L302.423 296.44C300.799 293.24 300.327 291.552 301.383 288.12C302.703 285.824 302.703 285.824 304.415 283.312C304.721 282.859 305.026 282.408 305.343 281.936C306.319 280.488 307.303 279.056 308.287 277.616C309.247 276.2 310.207 274.784 311.167 273.36C311.801 272.424 312.439 271.488 313.071 270.552C315.463 267.024 317.759 263.44 320.031 259.832C322.375 256.16 324.823 252.56 327.279 248.952L328.879 246.608C332.071 241.96 335.327 237.408 338.719 232.928C341.031 229.872 343.263 226.768 345.495 223.648C359.655 203.968 374.135 184.448 389.495 165.648C392.295 162.208 395.047 158.736 397.735 155.248C401.647 150.224 405.815 145.408 409.975 140.608C412.399 137.84 414.775 135.04 417.135 132.208C420.319 128.424 423.575 124.728 426.895 121.088C428.391 119.432 429.871 117.76 431.335 116.08C434.623 112.304 437.983 108.592 441.335 104.88C441.842 104.306 442.351 103.736 442.871 103.144C447.431 98.016 452.231 93.144 457.111 88.344C461.655 83.864 466.071 79.384 470.151 74.504C471.487 73.168 472.815 71.84 474.151 70.504C474.63 69.8768 475.111 69.248 475.599 68.6C477.599 66.2 479.807 64.288 482.175 62.272C483.535 61.08 484.799 59.856 486.047 58.552C487.743 56.904 487.743 56.904 489.343 56.904C489.607 56.112 489.871 55.32 490.143 54.504C491.383 53.28 491.383 53.28 492.967 51.976C496.631 48.872 499.983 45.52 503.367 42.136C507.111 38.32 510.895 34.64 514.967 31.176C518.503 28.08 521.855 24.776 525.207 21.496C528.903 17.976 532.359 14.72 537.207 12.856C538.071 12.4848 538.071 12.4848 538.959 12.1056C539.223 11.3136 539.487 10.5216 539.759 9.70557L539.8 9.79997Z" fill="#F86405"/>
</svg>
